TITLE ""
FILE "2Q_t_0735-0752.mp3" MP3
  TRACK 01 AUDIO
    TITLE "2Q_t_0735-0752_01"
    INDEX 01 00:00:00
  TRACK 02 AUDIO
    TITLE "2Q_t_0735-0752_02"
    INDEX 01 00:01:12
  TRACK 03 AUDIO
    TITLE "2Q_t_0735-0752_03"
    INDEX 01 00:01:61
  TRACK 04 AUDIO
    TITLE "2Q_t_0735-0752_04"
    INDEX 01 00:04:57
  TRACK 05 AUDIO
    TITLE "2Q_t_0735-0752_05"
    INDEX 01 00:05:27
  TRACK 06 AUDIO
    TITLE "2Q_t_0735-0752_06"
    INDEX 01 00:06:27
  TRACK 07 AUDIO
    TITLE "2Q_t_0735-0752_07"
    INDEX 01 00:07:03
  TRACK 08 AUDIO
    TITLE "2Q_t_0735-0752_08"
    INDEX 01 00:09:54
  TRACK 09 AUDIO
    TITLE "2Q_t_0735-0752_09"
    INDEX 01 00:10:24
  TRACK 10 AUDIO
    TITLE "2Q_t_0735-0752_10"
    INDEX 01 00:11:30
  TRACK 11 AUDIO
    TITLE "2Q_t_0735-0752_11"
    INDEX 01 00:11:75
  TRACK 12 AUDIO
    TITLE "2Q_t_0735-0752_12"
    INDEX 01 00:12:68
  TRACK 13 AUDIO
    TITLE "2Q_t_0735-0752_13"
    INDEX 01 00:13:38
  TRACK 14 AUDIO
    TITLE "2Q_t_0735-0752_14"
    INDEX 01 00:14:38
  TRACK 15 AUDIO
    TITLE "2Q_t_0735-0752_15"
    INDEX 01 00:15:20
  TRACK 16 AUDIO
    TITLE "2Q_t_0735-0752_16"
    INDEX 01 00:17:48
  TRACK 17 AUDIO
    TITLE "2Q_t_0735-0752_17"
    INDEX 01 00:18:18
  TRACK 18 AUDIO
    TITLE "2Q_t_0735-0752_18"
    INDEX 01 00:19:39
  TRACK 19 AUDIO
    TITLE "2Q_t_0735-0752_19"
    INDEX 01 00:20:09
  TRACK 20 AUDIO
    TITLE "2Q_t_0735-0752_20"
    INDEX 01 00:22:08
  TRACK 21 AUDIO
    TITLE "2Q_t_0735-0752_21"
    INDEX 01 00:22:53
  TRACK 22 AUDIO
    TITLE "2Q_t_0735-0752_22"
    INDEX 01 00:24:17
  TRACK 23 AUDIO
    TITLE "2Q_t_0735-0752_23"
    INDEX 01 00:24:62
  TRACK 24 AUDIO
    TITLE "2Q_t_0735-0752_24"
    INDEX 01 00:26:72
  TRACK 25 AUDIO
    TITLE "2Q_t_0735-0752_25"
    INDEX 01 00:27:42
  TRACK 26 AUDIO
    TITLE "2Q_t_0735-0752_26"
    INDEX 01 00:28:42
  TRACK 27 AUDIO
    TITLE "2Q_t_0735-0752_27"
    INDEX 01 00:29:14
  TRACK 28 AUDIO
    TITLE "2Q_t_0735-0752_28"
    INDEX 01 00:31:23
  TRACK 29 AUDIO
    TITLE "2Q_t_0735-0752_29"
    INDEX 01 00:31:68
  TRACK 30 AUDIO
    TITLE "2Q_t_0735-0752_30"
    INDEX 01 00:32:67
  TRACK 31 AUDIO
    TITLE "2Q_t_0735-0752_31"
    INDEX 01 00:33:43
  TRACK 32 AUDIO
    TITLE "2Q_t_0735-0752_32"
    INDEX 01 00:35:56
  TRACK 33 AUDIO
    TITLE "2Q_t_0735-0752_33"
    INDEX 01 00:36:28
  TRACK 34 AUDIO
    TITLE "2Q_t_0735-0752_34"
    INDEX 01 00:37:70
  TRACK 35 AUDIO
    TITLE "2Q_t_0735-0752_35"
    INDEX 01 00:38:44
  TRACK 36 AUDIO
    TITLE "2Q_t_0735-0752_36"
    INDEX 01 00:40:06
  TRACK 37 AUDIO
    TITLE "2Q_t_0735-0752_37"
    INDEX 01 00:40:49
  TRACK 38 AUDIO
    TITLE "2Q_t_0735-0752_38"
    INDEX 01 00:41:66
  TRACK 39 AUDIO
    TITLE "2Q_t_0735-0752_39"
    INDEX 01 00:42:38
  TRACK 40 AUDIO
    TITLE "2Q_t_0735-0752_40"
    INDEX 01 00:43:53
  TRACK 41 AUDIO
    TITLE "2Q_t_0735-0752_41"
    INDEX 01 00:44:23
  TRACK 42 AUDIO
    TITLE "2Q_t_0735-0752_42"
    INDEX 01 00:45:31
  TRACK 43 AUDIO
    TITLE "2Q_t_0735-0752_43"
    INDEX 01 00:46:01
  TRACK 44 AUDIO
    TITLE "2Q_t_0735-0752_44"
    INDEX 01 00:48:66
  TRACK 45 AUDIO
    TITLE "2Q_t_0735-0752_45"
    INDEX 01 00:49:36
  TRACK 46 AUDIO
    TITLE "2Q_t_0735-0752_46"
    INDEX 01 00:50:42
  TRACK 47 AUDIO
    TITLE "2Q_t_0735-0752_47"
    INDEX 01 00:51:16
  TRACK 48 AUDIO
    TITLE "2Q_t_0735-0752_48"
    INDEX 01 00:53:12
  TRACK 49 AUDIO
    TITLE "2Q_t_0735-0752_49"
    INDEX 01 00:53:57
  TRACK 50 AUDIO
    TITLE "2Q_t_0735-0752_50"
    INDEX 01 00:54:65
  TRACK 51 AUDIO
    TITLE "2Q_t_0735-0752_51"
    INDEX 01 00:55:39
  TRACK 52 AUDIO
    TITLE "2Q_t_0735-0752_52"
    INDEX 01 00:56:54
  TRACK 53 AUDIO
    TITLE "2Q_t_0735-0752_53"
    INDEX 01 00:57:28
  TRACK 54 AUDIO
    TITLE "2Q_t_0735-0752_54"
    INDEX 01 00:58:53
  TRACK 55 AUDIO
    TITLE "2Q_t_0735-0752_55"
    INDEX 01 00:59:25
  TRACK 56 AUDIO
    TITLE "2Q_t_0735-0752_56"
    INDEX 01 01:01:26
  TRACK 57 AUDIO
    TITLE "2Q_t_0735-0752_57"
    INDEX 01 01:01:71
  TRACK 58 AUDIO
    TITLE "2Q_t_0735-0752_58"
    INDEX 01 01:03:17
  TRACK 59 AUDIO
    TITLE "2Q_t_0735-0752_59"
    INDEX 01 01:04:01
  TRACK 60 AUDIO
    TITLE "2Q_t_0735-0752_60"
    INDEX 01 01:05:16
  TRACK 61 AUDIO
    TITLE "2Q_t_0735-0752_61"
    INDEX 01 01:05:59
  TRACK 62 AUDIO
    TITLE "2Q_t_0735-0752_62"
    INDEX 01 01:07:20
  TRACK 63 AUDIO
    TITLE "2Q_t_0735-0752_63"
    INDEX 01 01:07:69
  TRACK 64 AUDIO
    TITLE "2Q_t_0735-0752_64"
    INDEX 01 01:09:10
  TRACK 65 AUDIO
    TITLE "2Q_t_0735-0752_65"
    INDEX 01 01:09:53
  TRACK 66 AUDIO
    TITLE "2Q_t_0735-0752_66"
    INDEX 01 01:10:68
  TRACK 67 AUDIO
    TITLE "2Q_t_0735-0752_67"
    INDEX 01 01:11:42
  TRACK 68 AUDIO
    TITLE "2Q_t_0735-0752_68"
    INDEX 01 01:14:71
  TRACK 69 AUDIO
    TITLE "2Q_t_0735-0752_69"
    INDEX 01 01:15:39
  TRACK 70 AUDIO
    TITLE "2Q_t_0735-0752_70"
    INDEX 01 01:16:49
  TRACK 71 AUDIO
    TITLE "2Q_t_0735-0752_71"
    INDEX 01 01:17:21
  TRACK 72 AUDIO
    TITLE "2Q_t_0735-0752_72"
    INDEX 01 01:18:32
